<?xml version="1.0" standalone="no"?>
<!DOCTYPE svg PUBLIC "-//W3C//DTD SVG 20010904//EN"
 "http://www.w3.org/TR/2001/REC-SVG-20010904/DTD/svg10.dtd">
<svg version="1.0" xmlns="http://www.w3.org/2000/svg"
 width="250.000000pt" height="250.000000pt" viewBox="0 0 250.000000 250.000000"
 preserveAspectRatio="xMidYMid meet">
<metadata>
Created by potrace 1.11, written by Peter Selinger 2001-2013
</metadata>
<g transform="translate(0.000000,250.000000) scale(0.100000,-0.100000)"
fill="#000000" stroke="none">
<path d="M0 1250 l0 -1250 1250 0 1250 0 0 1250 0 1250 -1250 0 -1250 0 0
-1250z m1540 620 l0 -39 -152 -3 -153 -3 0 -95 0 -95 122 -5 c122 -5 123 -5
155 -38 l33 -32 0 -124 c0 -110 -2 -126 -20 -146 -37 -42 -75 -50 -230 -50
l-145 0 0 40 0 39 148 3 147 3 0 105 0 105 -122 5 c-122 5 -123 5 -155 38
l-33 32 0 114 c0 100 2 117 20 136 37 42 71 49 233 50 l152 0 0 -40z m560 0
l0 -40 -85 0 -85 0 0 -295 0 -295 -50 0 -50 0 0 295 0 295 -85 0 -85 0 0 40 0
40 220 0 220 0 0 -40z m-1297 -352 c37 -70 67 -129 67 -132 0 -4 -12 -6 -27
-6 -25 0 -34 10 -74 82 -25 45 -50 83 -55 85 -6 2 -18 -11 -27 -29 -9 -18 -43
-82 -76 -143 -55 -101 -62 -110 -91 -113 -18 -2 -31 0 -29 5 8 18 173 330 197
371 29 51 21 60 115 -120z m-443 -407 c0 -13 8 -21 23 -23 19 -3 22 -9 22 -43
0 -38 -2 -40 -32 -43 l-33 -3 0 65 c0 37 4 66 10 66 6 0 10 -9 10 -19z m1350
0 c0 -13 8 -21 23 -23 18 -2 23 -10 25 -45 2 -26 -1 -43 -7 -43 -6 0 -11 16
-11 35 0 24 -5 35 -15 35 -10 0 -15 -11 -15 -35 0 -19 -4 -35 -10 -35 -6 0
-10 28 -10 65 0 37 4 65 10 65 6 0 10 -9 10 -19z m290 -46 c0 -37 -4 -65 -10
-65 -6 0 -10 28 -10 65 0 37 4 65 10 65 6 0 10 -28 10 -65z m240 55 c0 -5 -4
-10 -10 -10 -5 0 -10 5 -10 10 0 6 5 10 10 10 6 0 10 -4 10 -10z m-2072 -67
c2 -32 -1 -53 -7 -53 -6 0 -11 9 -11 20 0 13 -7 20 -20 20 -13 0 -20 -7 -20
-20 0 -11 -4 -20 -10 -20 -11 0 -14 93 -3 104 4 4 21 6 38 4 29 -3 30 -5 33
-55z m567 47 c-3 -5 -15 -10 -26 -10 -27 0 -24 -18 4 -22 17 -2 22 -10 22 -33
0 -27 -4 -30 -34 -33 -21 -2 -31 0 -26 7 3 6 15 11 26 11 10 0 19 7 19 15 0 8
-9 15 -20 15 -11 0 -23 7 -26 15 -11 27 4 45 36 45 18 0 29 -4 25 -10z m245 0
c0 -5 7 -10 15 -10 8 0 15 -4 15 -10 0 -5 -7 -10 -15 -10 -9 0 -15 -9 -15 -25
0 -16 6 -25 15 -25 8 0 15 -5 15 -11 0 -6 -10 -9 -22 -7 -18 2 -24 12 -29 43
-4 22 -4 45 -2 52 6 15 23 17 23 3z m488 -4 c-12 -9 -18 -27 -18 -55 0 -22 -4
-41 -10 -41 -5 0 -10 20 -10 45 0 33 -4 45 -15 45 -8 0 -15 5 -15 10 0 6 19
10 43 10 37 -1 40 -2 25 -14z m-1160 -53 c2 -26 -1 -43 -7 -43 -6 0 -11 16
-11 35 0 24 -5 35 -15 35 -10 0 -15 -11 -15 -35 0 -19 -4 -35 -10 -35 -5 0
-10 16 -10 35 0 24 -5 35 -15 35 -10 0 -15 -11 -15 -35 0 -19 -4 -35 -10 -35
-5 0 -10 20 -10 45 l0 46 58 -3 57 -3 3 -42z m196 31 c13 -33 6 -44 -26 -45
-31 -2 -31 -2 -5 -6 33 -5 36 -23 4 -23 -42 0 -64 49 -35 78 17 17 55 15 62
-4z m93 1 c3 -9 2 -19 -2 -23 -4 -4 -10 -1 -12 6 -10 27 -33 12 -33 -23 0 -19
-4 -35 -10 -35 -5 0 -10 20 -10 45 0 43 1 45 30 45 18 0 33 -6 37 -15z m183
-20 c0 -28 4 -35 20 -35 16 0 20 7 20 35 0 19 5 35 10 35 6 0 10 -27 10 -60 0
-46 -3 -60 -15 -60 -9 0 -12 6 -9 15 4 10 0 15 -13 15 -10 0 -24 5 -31 12 -14
14 -16 78 -2 78 6 0 10 -16 10 -35z m145 25 c-3 -5 -15 -10 -26 -10 -27 0 -24
-18 4 -22 14 -2 22 -10 22 -23 0 -16 -8 -21 -35 -23 -37 -4 -33 12 5 21 18 4
18 5 -3 6 -48 2 -41 61 8 61 18 0 29 -4 25 -10z m169 -6 c13 -33 6 -44 -26
-45 -31 -2 -31 -2 -5 -6 33 -5 36 -23 4 -23 -42 0 -64 49 -35 78 17 17 55 15
62 -4z m144 -31 c2 -26 -1 -43 -7 -43 -6 0 -11 16 -11 35 0 24 -5 35 -15 35
-10 0 -15 -11 -15 -35 0 -19 -4 -35 -10 -35 -5 0 -10 16 -10 35 0 19 -4 35
-10 35 -5 0 -10 -16 -10 -35 0 -19 -4 -35 -10 -35 -5 0 -10 20 -10 46 l0 45
53 -3 52 -3 3 -42z m92 37 c0 -5 -9 -10 -20 -10 -11 0 -20 -4 -20 -9 0 -5 9
-11 20 -14 23 -6 27 -35 6 -43 -8 -3 -23 -4 -33 -1 -15 4 -14 6 6 13 24 7 24
7 3 15 -21 8 -30 38 -15 52 10 11 53 8 53 -3z m234 -6 c12 -31 6 -44 -21 -45
-24 -2 -25 -2 -5 -6 32 -6 27 -25 -5 -21 -30 3 -39 23 -29 64 7 28 50 34 60 8z
m104 -1 c2 -9 -5 -11 -27 -7 -28 6 -31 4 -31 -20 0 -21 5 -26 24 -26 14 0 28
-4 31 -10 9 -14 -48 -13 -63 2 -16 16 -15 51 0 66 16 16 60 12 66 -5z m180 5
c14 -14 16 -78 2 -78 -5 0 -10 16 -10 35 0 24 -5 35 -15 35 -10 0 -15 -11 -15
-35 0 -19 -4 -35 -10 -35 -5 0 -10 20 -10 45 0 40 2 45 23 45 13 0 28 -5 35
-12z m102 -2 c28 -35 -11 -93 -47 -70 -36 22 -23 84 17 84 10 0 23 -7 30 -14z
m145 -31 c0 -34 -3 -40 -23 -43 -29 -4 -52 14 -52 42 0 30 20 47 50 44 22 -3
25 -8 25 -43z m103 -12 c-3 -57 -3 -58 -35 -61 -19 -2 -33 1 -33 7 0 6 12 12
28 12 20 1 22 2 7 6 -30 8 -45 23 -45 47 0 30 18 46 52 46 29 0 29 0 26 -57z
m42 12 c0 -25 -4 -45 -10 -45 -5 0 -10 20 -10 45 0 25 5 45 10 45 6 0 10 -20
10 -45z m94 29 c12 -31 6 -44 -21 -45 -24 -2 -25 -2 -5 -6 32 -6 27 -25 -5
-21 -30 3 -39 23 -29 64 7 28 50 34 60 8z m96 6 c0 -5 -11 -10 -25 -10 -31 0
-33 -17 -2 -22 14 -2 22 -10 22 -23 0 -16 -8 -21 -35 -23 -37 -4 -33 12 5 21
18 4 18 5 -3 6 -25 1 -38 22 -28 46 6 17 66 21 66 5z m-2370 -195 c0 -8 -2
-15 -4 -15 -2 0 -6 7 -10 15 -3 8 -1 15 4 15 6 0 10 -7 10 -15z m24 0 c3 -8 1
-15 -4 -15 -6 0 -10 7 -10 15 0 8 2 15 4 15 2 0 6 -7 10 -15z m42 -51 c-3 -8
-11 -14 -18 -14 -9 0 -9 3 0 12 7 7 13 26 13 43 l2 30 4 -28 c3 -16 2 -35 -1
-43z m91 4 c-2 -13 -4 -3 -4 22 0 25 2 35 4 23 2 -13 2 -33 0 -45z m142 34
c-13 -5 -11 -40 4 -45 7 -4 6 -6 -4 -6 -17 -1 -31 41 -22 65 4 10 8 10 18 1 7
-7 9 -13 4 -15z m54 5 c11 -4 17 -16 16 -34 -1 -26 -1 -26 -7 -5 -4 13 -11 23
-17 23 -5 0 -13 -10 -17 -23 -4 -16 -6 -10 -7 22 0 25 3 40 7 34 4 -6 15 -13
25 -17z m677 13 c-13 -8 -13 -10 0 -10 11 0 11 -3 2 -12 -7 -7 -13 -21 -13
-32 -1 -14 -4 -11 -8 9 -9 38 -3 55 18 55 14 0 14 -2 1 -10z m197 -52 c-2 -13
-4 -3 -4 22 0 25 2 35 4 23 2 -13 2 -33 0 -45z m101 25 c-7 -9 -7 -18 2 -28
10 -12 10 -15 -3 -15 -9 0 -16 12 -19 28 -6 41 0 54 17 39 9 -8 10 -16 3 -24z
m163 30 c-11 -5 -11 -7 0 -14 10 -6 11 -9 2 -9 -7 0 -13 -12 -14 -27 l-1 -28
-8 28 c-11 35 -3 57 19 56 12 0 12 -2 2 -6z m186 -55 c-2 -13 -4 -3 -4 22 0
25 2 35 4 23 2 -13 2 -33 0 -45z m310 0 c-2 -13 -4 -3 -4 22 0 25 2 35 4 23 2
-13 2 -33 0 -45z m101 25 c-7 -9 -7 -18 2 -28 10 -12 10 -15 -3 -15 -9 0 -16
12 -19 28 -6 41 0 54 17 39 9 -8 10 -16 3 -24z m39 -25 c-2 -13 -4 -3 -4 22 0
25 2 35 4 23 2 -13 2 -33 0 -45z m273 50 c0 -4 -4 -10 -10 -13 -5 -3 -10 0
-10 7 0 9 -3 9 -10 -2 -8 -13 -10 -13 -10 2 0 11 7 16 20 15 11 -1 20 -5 20
-9z m-2270 -38 c0 -23 -4 -30 -20 -30 -11 0 -23 7 -26 15 -9 23 3 45 26 45 16
0 20 -7 20 -30z m89 -2 c-2 -31 -2 -31 -6 -5 -2 15 -8 27 -13 27 -5 0 -11 -12
-13 -27 -4 -26 -4 -26 -6 5 -1 26 3 32 19 32 16 0 20 -6 19 -32z m209 9 c2
-12 -3 -17 -20 -18 -23 -1 -23 -1 2 -9 24 -8 24 -8 2 -9 -25 -1 -38 20 -28 45
8 20 40 14 44 -9z m99 -12 c2 -25 1 -26 -5 -7 -4 13 -11 23 -17 23 -5 0 -13
-10 -17 -23 -5 -19 -6 -18 -7 10 -1 29 2 33 22 30 17 -2 22 -10 24 -33z m61
12 c2 -12 -3 -17 -20 -18 -23 -1 -23 -1 2 -9 24 -8 24 -8 2 -9 -25 -1 -38 20
-28 45 8 20 40 14 44 -9z m45 -17 c3 8 8 22 10 30 3 8 6 2 6 -14 1 -32 15 -26
24 9 3 12 5 8 4 -10 -2 -26 -6 -30 -34 -33 -31 -3 -33 -2 -32 30 l1 33 8 -30
c4 -20 9 -25 13 -15z m145 17 c2 -12 -3 -17 -20 -18 -23 -1 -23 -1 2 -9 24 -8
24 -8 2 -9 -25 -1 -38 20 -28 45 8 20 40 14 44 -9z m52 6 c0 -15 -2 -15 -9 -4
-7 11 -10 7 -14 -15 l-4 -29 -2 33 c-1 22 3 32 14 32 8 0 15 -8 15 -17z m70
-13 c0 -25 -4 -30 -25 -30 -16 0 -25 6 -25 15 0 8 7 15 15 15 21 0 19 18 -2
23 -11 3 -7 5 10 6 24 1 27 -3 27 -29z m90 0 c0 -23 -4 -30 -20 -30 -16 0 -20
7 -20 30 0 23 4 30 20 30 16 0 20 -7 20 -30z m150 0 c0 -23 -5 -30 -19 -30
-11 0 -22 -6 -24 -12 -3 -7 -6 6 -6 30 -1 38 1 42 24 42 21 0 25 -5 25 -30z
m60 0 c0 -23 -4 -30 -20 -30 -16 0 -20 7 -20 30 0 23 4 30 20 30 16 0 20 -7
20 -30z m89 -2 c-2 -31 -2 -31 -6 -5 -2 15 -8 27 -13 27 -5 0 -11 -12 -13 -27
-4 -26 -4 -26 -6 5 -1 26 3 32 19 32 16 0 20 -6 19 -32z m156 2 c0 -18 -6 -26
-22 -28 -20 -3 -23 1 -23 28 0 27 3 31 23 28 16 -2 22 -10 22 -28z m133 23
c-22 -5 -24 -23 -3 -23 8 0 15 -7 15 -15 0 -9 -9 -15 -22 -14 -22 0 -22 1 -3
9 17 7 17 9 3 9 -11 1 -18 9 -18 21 0 14 6 20 23 19 16 -1 18 -2 5 -6z m72
-23 c0 -23 -4 -30 -20 -30 -11 0 -20 7 -20 15 0 8 7 15 15 15 21 0 19 18 -2
23 -14 4 -12 5 5 6 18 1 22 -4 22 -29z m98 7 c2 -12 -3 -17 -20 -18 -23 -1
-23 -1 2 -9 l25 -8 -27 -1 c-23 -1 -28 3 -28 22 0 13 3 27 7 31 12 12 38 2 41
-17z m50 16 c-22 -5 -24 -23 -3 -23 8 0 15 -7 15 -15 0 -10 -9 -15 -27 -14
-25 0 -26 1 -8 9 17 7 17 9 3 9 -11 1 -18 9 -18 21 0 15 6 20 28 19 16 -1 20
-3 10 -6z m90 0 c-22 -5 -24 -23 -3 -23 8 0 15 -7 15 -15 0 -10 -9 -15 -27
-14 -25 0 -26 1 -8 9 17 7 17 9 3 9 -11 1 -18 9 -18 21 0 15 6 20 28 19 16 -1
20 -3 10 -6z m67 -23 c0 -16 -6 -26 -18 -28 -19 -4 -32 20 -23 44 9 25 41 13
41 -16z m70 -11 c6 0 13 10 17 23 6 19 7 18 5 -7 -2 -23 -7 -30 -22 -30 -15 0
-20 7 -22 30 -2 25 -1 26 5 7 4 -13 12 -23 17 -23z m160 11 c0 -16 -6 -26 -18
-28 -19 -4 -32 20 -23 44 9 25 41 13 41 -16z m64 -2 c-2 -31 -2 -31 -6 -5 -2
15 -8 27 -13 27 -5 0 -11 -12 -13 -27 -4 -26 -4 -26 -6 5 -1 26 3 32 19 32 16
0 20 -6 19 -32z m49 25 c-22 -5 -24 -23 -3 -23 8 0 15 -7 15 -15 0 -9 -9 -15
-22 -14 -22 0 -22 1 -3 9 17 7 17 9 3 9 -11 1 -18 9 -18 21 0 14 6 20 23 19
16 -1 18 -2 5 -6z m-921 -19 c-3 -3 -12 -4 -19 -1 -8 3 -5 6 6 6 11 1 17 -2
13 -5z m150 0 c-3 -3 -12 -4 -19 -1 -8 3 -5 6 6 6 11 1 17 -2 13 -5z"/>
<path d="M360 1045 c0 -16 6 -25 15 -25 9 0 15 9 15 25 0 16 -6 25 -15 25 -9
0 -15 -9 -15 -25z"/>
<path d="M110 1075 c0 -8 9 -15 20 -15 11 0 20 7 20 15 0 8 -9 15 -20 15 -11
0 -20 -7 -20 -15z"/>
<path d="M450 1060 c0 -5 9 -10 20 -10 11 0 20 5 20 10 0 6 -9 10 -20 10 -11
0 -20 -4 -20 -10z"/>
<path d="M1040 1060 c0 -5 9 -10 20 -10 11 0 20 5 20 10 0 6 -9 10 -20 10 -11
0 -20 -4 -20 -10z"/>
<path d="M1520 1060 c0 -5 7 -10 15 -10 8 0 15 5 15 10 0 6 -7 10 -15 10 -8 0
-15 -4 -15 -10z"/>
<path d="M1900 1045 c0 -18 5 -25 20 -25 15 0 20 7 20 25 0 18 -5 25 -20 25
-15 0 -20 -7 -20 -25z"/>
<path d="M2040 1045 c0 -18 5 -25 20 -25 15 0 20 7 20 25 0 18 -5 25 -20 25
-15 0 -20 -7 -20 -25z"/>
<path d="M2140 1045 c0 -18 5 -25 20 -25 15 0 20 7 20 25 0 18 -5 25 -20 25
-15 0 -20 -7 -20 -25z"/>
<path d="M2290 1060 c0 -5 7 -10 15 -10 8 0 15 5 15 10 0 6 -7 10 -15 10 -8 0
-15 -4 -15 -10z"/>
<path d="M155 860 c-7 -12 2 -30 16 -30 5 0 9 9 9 20 0 21 -15 27 -25 10z"/>
<path d="M1020 850 c0 -11 5 -20 10 -20 6 0 10 9 10 20 0 11 -4 20 -10 20 -5
0 -10 -9 -10 -20z"/>
<path d="M1165 860 c-7 -12 2 -30 16 -30 5 0 9 9 9 20 0 21 -15 27 -25 10z"/>
<path d="M1230 850 c0 -11 5 -20 10 -20 6 0 10 9 10 20 0 11 -4 20 -10 20 -5
0 -10 -9 -10 -20z"/>
<path d="M1470 850 c0 -13 5 -20 13 -17 6 2 12 10 12 17 0 7 -6 15 -12 18 -8
2 -13 -5 -13 -18z"/>
<path d="M1770 860 c0 -5 5 -10 10 -10 6 0 10 5 10 10 0 6 -4 10 -10 10 -5 0
-10 -4 -10 -10z"/>
<path d="M1985 860 c-4 -6 -3 -16 3 -22 6 -6 12 -6 17 2 4 6 3 16 -3 22 -6 6
-12 6 -17 -2z"/>
<path d="M2215 860 c-4 -6 -3 -16 3 -22 6 -6 12 -6 17 2 4 6 3 16 -3 22 -6 6
-12 6 -17 -2z"/>
</g>
</svg>
